PathFileType	4	(X/Y/Z)	Run_200 02
DataRate	CameraRate	NumFrames	NumMarkers	Units	OrigDataRate	OrigDataStartFrame	OrigNumFrames
120	120	7	42	mm	120	74	128
Frame#	Time	LASI			RASI			LPSI			RPSI			RTH1			RTH2			RTH3			LTH1			LTH2			LTH3			RTB1			RTB2			RTB3			LTB1			LTB2			LTB3			RCAL			RTOE			RMT5			LCAL			LTOE			LMT5			LACR			RACR			CLAV			C7			RUA1			RUA2			RUA3			RLEL			RMEL			LUA1			LUA2			LUA3			LLEL			LMEL			RFAsuperior			RFAradius			RFAulna			LFAsuperior			LFAradius			LFAulna			
		X1	Y1	Z1	X2	Y2	Z2	X3	Y3	Z3	X4	Y4	Z4	X5	Y5	Z5	X6	Y6	Z6	X7	Y7	Z7	X8	Y8	Z8	X9	Y9	Z9	X10	Y10	Z10	X11	Y11	Z11	X12	Y12	Z12	X13	Y13	Z13	X14	Y14	Z14	X15	Y15	Z15	X16	Y16	Z16	X17	Y17	Z17	X18	Y18	Z18	X19	Y19	Z19	X20	Y20	Z20	X21	Y21	Z21	X22	Y22	Z22	X23	Y23	Z23	X24	Y24	Z24	X25	Y25	Z25	X26	Y26	Z26	X27	Y27	Z27	X28	Y28	Z28	X29	Y29	Z29	X30	Y30	Z30	X31	Y31	Z31	X32	Y32	Z32	X33	Y33	Z33	X34	Y34	Z34	X35	Y35	Z35	X36	Y36	Z36	X37	Y37	Z37	X38	Y38	Z38	X39	Y39	Z39	X40	Y40	Z40	X41	Y41	Z41	X42	Y42	Z42	

74	0.741667	882.657451	1064.300413	-464.230904	898.6390720000001	1045.69383	-205.111876	708.296011	1094.294036	-357.802674	712.086666	1082.166029	-277.400592	873.3305339999999	874.904476	-161.76719	966.614354	793.17416	-174.254077	934.916769	669.043855	-196.071442	829.263364	851.118861	-511.295604	898.070397	732.094193	-495.135022	842.2535	615.729594	-466.586487	946.59979	429.781319	-274.538086	886.2647459999999	409.085836	-199.315013	825.220084	326.578681	-262.027424	868.109016	382.620051	-384.51732	808.095639	307.022162	-429.192539	774.135636	205.870586	-353.709895	612.51719	330.594845	-253.947589	751.319601	142.558034	-262.758047	691.9650349999999	180.967556	-171.305282	611.296464	106.228491	-332.80879	844.5057880000001	71.286197	-320.249066	769.94442	54.005906	-410.930799	919.496666	1511.992513	-506.016968	899.618567	1525.321236	-155.648673	959.707397	1463.024238	-293.763616	840.051552	1561.222657	-333.888883	845.620536	1428.848869	-83.977772	813.8020310000001	1343.274278	-91.682705	740.719034	1363.617905	-71.658495	670.022054	1245.02173	-31.053093	648.367559	1244.267947	-110.28492	902.903027	1415.856445	-575.832176	911.604965	1343.256092	-566.601931	816.3112159999999	1329.323572	-579.465694	825.172139	1168.492092	-635.167264	773.780996	1154.342958	-564.551412	748.26935	1166.705386	-26.30979	866.573444	1053.251023	-102.129222	823.5597770000001	1020.730117	-52.622558	919.879845	1162.895987	-598.889526	1049.588152	1166.925447	-472.678993	1055.594955	1103.394938	-506.706357	
75	0.75	882.17768	1066.044317	-463.960672	899.313715	1048.742414	-205.700054	708.579881	1097.368921	-356.965042	712.132747	1085.630999	-276.219393	875.517562	878.850591	-160.963868	969.793155	798.871366	-174.035884	940.307867	674.328494	-195.037198	824.801572	852.5407259999999	-510.375357	890.0087150000001	731.64194	-494.108484	831.081912	616.827049	-465.298381	957.941181	432.141479	-274.944062	898.997249	408.787928	-199.678187	837.037917	326.71779	-262.118624	853.187454	383.006942	-384.21925	792.7106209999999	307.82531	-428.321322	758.32845	206.665509	-353.191251	628.842396	317.205434	-254.29882	777.219666	136.677941	-263.928598	716.244433	171.88646	-172.163883	595.448851	107.649826	-332.502703	827.935436	70.822194	-320.162872	753.251037	54.262949	-410.608429	922.5039389999999	1517.220679	-504.592632	898.321447	1527.497568	-155.342196	959.773468	1466.143897	-292.513335	840.811175	1564.287052	-333.530096	841.693144	1433.486976	-83.156823	807.972837	1348.506001	-91.01122599999999	735.340321	1370.86867	-71.104663	661.055807	1254.193038	-31.943377	639.450656	1254.169178	-111.171537	906.674851	1421.225754	-574.623238	915.1505079999999	1348.852022	-565.2549310000001	820.367082	1334.007363	-578.863606	829.989176	1172.720921	-632.786871	778.800807	1158.764586	-561.869854	738.603483	1175.540949	-27.003727	855.346223	1060.880992	-103.04467	812.380367	1029.054761	-52.869713	924.570922	1169.85448	-595.609797	1053.445526	1178.629673	-469.583671	1061.779246	1115.08397	-503.140215	
76	0.758333	882.047228	1067.716927	-464.210414	899.9762500000001	1052.17378	-206.14604	709.227049	1100.748253	-356.409735	712.373796	1089.587118	-275.287628	877.547848	883.2749669999999	-160.051587	972.6449699999999	804.767239	-173.738262	945.0949859999999	679.829663	-193.828764	819.883289	854.046749	-509.164195	881.838981	731.4527409999999	-492.835748	819.71791	618.2641139999999	-463.688005	968.780437	434.768756	-275.270195	911.445927	408.19212	-200.144913	848.5413579999999	326.567489	-262.229969	837.897462	383.74555	-383.119397	777.112115	309.061893	-427.275565	742.469778	207.786196	-352.559846	645.908402	303.208567	-255.068673	803.57453	130.968265	-265.454719	740.984728	162.534537	-173.508159	579.675326	109.477997	-332.165892	811.443348	70.223371	-319.81093	736.583174	54.557623	-410.163618	925.207151	1522.778721	-502.902777	896.912659	1530.096544	-155.231894	959.907047	1469.650391	-291.144478	841.564898	1567.589577	-333.040171	838.00125	1438.636204	-82.354156	802.5634659999999	1354.144292	-90.80540499999999	730.50433	1378.563658	-70.552256	652.4768800000001	1263.943044	-33.124844	631.203184	1264.612492	-112.463549	909.916643	1427.084302	-573.337267	918.439239	1354.81364	-563.721219	824.14247	1338.97938	-578.160781	834.362344	1177.424771	-630.461336	783.130744	1163.858927	-559.386331	729.18063	1184.995676	-27.893394	844.828393	1069.372407	-104.054483	801.982786	1038.139044	-53.231142	928.692145	1177.007271	-592.933757	1056.58048	1190.808903	-466.531289	1067.040992	1127.224623	-499.447978	
77	0.766667	882.250957	1069.269474	-464.753273	900.630708	1055.864671	-206.548735	710.189771	1104.338553	-356.194988	712.962228	1093.923587	-274.712845	879.299135	888.1476740000001	-159.046271	975.129731	810.757239	-173.366299	949.192079	685.427603	-192.601068	814.853606	855.75982	-507.787666	873.915337	731.691611	-491.323352	808.320157	620.122279	-461.878049	979.148239	437.528011	-275.631787	923.549377	407.275525	-200.76708	860.34154	325.705871	-262.476743	822.426877	384.896605	-381.571905	761.413257	310.756727	-426.120223	726.678546	209.239865	-351.831398	663.7423690000001	288.747729	-256.178123	830.427478	125.533631	-267.433664	766.23103	152.974937	-175.374749	563.944663	111.849775	-331.799456	795.030163	69.62759800000001	-319.339408	719.96498	54.892723	-409.653457	927.525363	1528.531194	-501.098401	895.449282	1533.138279	-155.193567	960.1058410000001	1473.539361	-289.657775	842.292265	1571.080647	-332.474933	834.567711	1444.249535	-81.63696	797.694914	1360.189347	-90.83931800000001	726.1950859999999	1386.569168	-70.207196	644.414408	1274.106999	-34.602384	623.947628	1275.431645	-114.223961	912.7070639999999	1433.216037	-572.069738	921.604004	1360.906987	-562.042516	827.683855	1344.188195	-577.566524	838.3493089999999	1182.437217	-628.29868	786.863209	1169.328786	-557.215379	720.063231	1194.822539	-28.991801	835.079436	1078.374874	-105.110706	792.280896	1047.66904	-53.803195	932.394032	1184.352351	-590.965005	1058.979724	1203.228971	-463.554592	1071.34339	1139.554888	-495.621675	
78	0.775	882.791337	1070.762937	-465.21155	901.328443	1059.74427	-206.914725	711.378022	1108.120848	-356.348836	713.94052	1098.52176	-274.519453	880.7121069999999	893.374286	-157.967992	977.163441	816.712385	-172.893351	952.484685	690.996097	-191.5181	810.135775	857.775502	-506.372094	866.440025	732.4211	-489.584712	797.0638760000001	622.493278	-460.025536	989.031743	440.236444	-276.017062	935.261873	406.076204	-201.475483	873.204437	323.717275	-262.961439	807.019494	386.551782	-380.026021	745.782705	312.938469	-424.962268	711.092315	211.081536	-351.038846	682.304179	273.940008	-257.524441	857.785523	120.468484	-269.944911	792.073707	143.332125	-177.780751	548.339335	114.900343	-331.417408	778.7017509999999	69.194472	-318.931585	703.432042	55.315954	-409.106543	929.4926390000001	1534.348126	-499.333614	894.07505	1536.634538	-155.015678	960.368164	1477.783155	-288.065289	843.009766	1574.730127	-331.879971	831.435166	1450.298989	-81.06552600000001	793.403593	1366.679085	-90.77085700000001	722.321108	1394.803166	-70.218059	636.972052	1284.535439	-36.358547	617.80386	1286.482616	-116.421968	915.171731	1439.399711	-570.907214	924.636677	1366.969864	-560.3292719999999	830.9718360000001	1349.59776	-577.147771	841.961498	1187.643186	-626.361716	790.058007	1174.937627	-555.41085	711.45618	1204.867634	-30.318253	826.118141	1087.612039	-106.215036	783.213597	1057.399148	-54.653753	935.707152	1191.878841	-589.481265	1060.643301	1215.655335	-460.66214	1074.692401	1151.847055	-491.713296	
79	0.7833329999999999	883.683295	1072.299928	-465.354672	902.111364	1063.7839	-207.170692	712.688856	1112.134071	-356.865293	715.171051	1103.297626	-274.629823	881.7654669999999	898.823533	-156.850696	978.650167	822.501005	-172.265432	954.845231	696.412728	-190.703499	806.05364	860.1172780000001	-505.001069	859.441041	733.599858	-487.667971	786.130371	625.422597	-458.300656	998.351827	442.729161	-276.244593	946.556157	404.672746	-202.086801	887.554185	320.48236	-263.694958	791.8895	388.76835	-378.777441	730.380414	315.635918	-423.920178	695.80798	213.412646	-350.25899	701.530706	258.858323	-259.010968	885.601769	115.908437	-272.98723	818.599433	133.779913	-180.715632	533.007481	118.735818	-331.034147	762.488297	69.001316	-318.683126	687.018282	55.907877	-408.528823	931.202106	1540.109351	-497.687151	892.965227	1540.554713	-154.561308	960.691411	1482.304591	-286.402424	843.744852	1578.504024	-331.294913	828.696364	1456.732865	-80.69019400000001	789.660522	1373.61818	-90.415277	718.80669	1403.238685	-70.673089	630.230184	1295.100971	-38.378105	612.657371	1297.637615	-118.958708	917.4277949999999	1445.469298	-569.850584	927.429051	1372.901716	-558.689425	833.939219	1355.153862	-576.825196	845.169632	1192.957818	-624.6632969999999	792.722811	1180.549084	-553.9436439999999	703.565363	1215.003334	-31.874319	817.948806	1096.8811	-107.345612	774.736587	1067.117743	-55.80637	938.569685	1199.462872	-588.130226	1061.605334	1227.86362	-457.871293	1077.142559	1163.887754	-487.800776	
80	0.791667	884.934666	1073.955304	-465.260948	902.979181	1067.959753	-207.237623	714.07947	1116.400842	-357.691264	716.454827	1108.212943	-274.925063	882.448744	904.351897	-155.727505	979.520096	828.000302	-171.42449	956.174656	701.562278	-190.210802	802.729609	862.748955	-503.718275	852.846342	735.140299	-485.670325	775.670198	628.874896	-456.842543	1007.00986	444.894298	-276.10358	957.403759	403.133677	-202.416423	903.172912	316.291234	-264.583332	777.1840099999999	391.55032	-377.8978	715.323095	318.87221	-423.08198	680.868218	216.333004	-349.58424	721.396979	243.547788	-260.572252	913.783053	112.039332	-276.504558	845.843024	124.512035	-184.128071	518.090447	123.411835	-330.657345	746.437564	69.014869	-318.588722	670.7499780000001	56.752635	-407.936564	932.749651	1545.718389	-496.154493	892.254981	1544.798923	-153.878464	961.0746789999999	1486.979166	-284.731054	844.518513	1582.350644	-330.758783	826.471144	1463.434945	-80.53854800000001	786.401064	1380.923287	-89.89018799999999	715.648043	1411.864388	-71.60257300000001	624.236863	1305.683698	-40.652803	608.274416	1308.764074	-121.722771	919.545754	1451.334648	-568.820202	929.867244	1378.643593	-557.175694	836.515185	1360.773322	-576.464804	847.920669	1198.304765	-623.1677570000001	794.831769	1186.119026	-552.723164	696.4880010000001	1225.086725	-33.639489	810.580434	1106.017171	-108.474	766.831585	1076.643891	-57.234579	940.910838	1206.911478	-586.6664019999999	1061.926205	1239.661496	-455.235093	1078.775294	1175.465023	-483.93446	
